<svg xmlns="http://www.w3.org/2000/svg" viewBox="0 0 21 20">
  <path d="M11.3687,12.6543Q11.6191,11.5381 11.6191,10.5098 11.6191,9.5166 11.3643,8.67725 11.1094,7.83789 10.5908,7.22705 10.0723,6.61621 9.29004,6.27344 8.50781,5.93066 7.45313,5.93066 6.79395,5.93066 6.22705,6.11523 5.66016,6.2998 5.19434,6.64258 4.72852,6.98535 4.35938,7.46875 3.99023,7.95215 3.74414,8.54102L2.38184,6.17676 1.23926,6.17676 1.23926,16.3281 4.21875,16.3281 4.21875,11.2393Q4.21875,10.9053 4.27148,10.4834 4.32422,10.0615 4.44287,9.62646 4.56152,9.19141 4.75049,8.77832 4.93945,8.36523 5.20313,8.04443 5.4668,7.72363 5.80957,7.52588 6.15234,7.32813 6.5918,7.32813 7.04004,7.32813 7.36963,7.49512 7.69922,7.66211 7.93213,7.93457 8.16504,8.20703 8.30566,8.56738 8.44629,8.92773 8.52979,9.31885 8.61328,9.70996 8.63965,10.1011 8.66602,10.4922 8.66602,10.835 8.66601,11.3535 8.61768,11.9556 8.56933,12.5576 8.47705,13.1948 8.38476,13.832 8.24854,14.4824 8.1123,15.1328 7.94092,15.7437 7.76953,16.3545 7.55859,16.8994 7.34766,17.4443 7.11035,17.8838L8.22656,18.4902Q8.97363,17.8047 9.59766,16.8599 10.2217,15.915 10.6699,14.8428 11.1182,13.7705 11.3687,12.6543z M13.7791,10.7998L19.6854,10.7998 19.6854,9.18262 13.7791,9.18262 13.7791,10.7998z" fill="#F08200" />
</svg>