<svg xmlns="http://www.w3.org/2000/svg" viewBox="0 0 24 24">
  <path d="M3,3L17,3C18.11,3,19,3.9,19,5L19,12.08C17.45,11.82,15.92,12.18,14.68,13L11,13 11,17 12.08,17C11.97,17.68,11.97,18.35,12.08,19L3,19C1.9,19,1,18.11,1,17L1,5C1,3.9,1.9,3,3,3 M3,7L3,11 9,11 9,7 3,7 M11,7L11,11 17,11 17,7 11,7 M3,13L3,17 9,17 9,13 3,13 M22.78,19.32L21.71,18.5C21.73,18.33 21.75,18.17 21.75,18 21.75,17.83 21.74,17.67 21.71,17.5L22.77,16.68C22.86,16.6,22.89,16.47,22.83,16.36L21.83,14.63C21.77,14.5,21.64,14.5,21.5,14.5L20.28,15C20,14.82,19.74,14.65,19.43,14.53L19.24,13.21C19.23,13.09,19.12,13,19,13L17,13C16.88,13,16.77,13.09,16.75,13.21L16.56,14.53C16.26,14.66,15.97,14.82,15.71,15L14.47,14.5C14.36,14.5,14.23,14.5,14.16,14.63L13.16,16.36C13.1,16.47,13.12,16.6,13.22,16.68L14.28,17.5C14.26,17.67 14.25,17.83 14.25,18 14.25,18.17 14.26,18.33 14.28,18.5L13.22,19.32C13.13,19.4,13.1,19.53,13.16,19.64L14.16,21.37C14.22,21.5,14.35,21.5,14.47,21.5L15.71,21C15.97,21.18,16.25,21.35,16.56,21.47L16.75,22.79C16.77,22.91,16.87,23,17,23L19,23C19.12,23,19.23,22.91,19.25,22.79L19.44,21.47C19.74,21.34,20,21.18,20.28,21L21.5,21.5C21.64,21.5,21.77,21.5,21.84,21.37L22.84,19.64C22.9,19.53,22.87,19.4,22.78,19.32 M18,19.5C17.17,19.5 16.5,18.83 16.5,18 16.5,17.17 17.18,16.5 18,16.5 18.82,16.5 19.5,17.17 19.5,18 19.5,18.83 18.84,19.5 18,19.5z" fill="#00C373" />
</svg>