<svg xmlns="http://www.w3.org/2000/svg" viewBox="0 0 24 24">
  <path d="M14,2L6,2A2,2,0,0,0,4,4L4,20A2,2,0,0,0,6,22L13,22C12.59,21.75 12.2,21.44 11.86,21.1 9.22,18.67 9.05,14.56 11.5,11.92 13.69,9.5 17.33,9.13 20,11L20,8 14,2 M13,9L13,3.5 18.5,9 13,9 M20.31,18.9C21.64,16.79 21,14 18.91,12.68 16.8,11.35 14,12 12.69,14.08 11.35,16.19 12,18.97 14.09,20.3 15.55,21.23 17.41,21.23 18.88,20.32L22,23.39 23.39,22 20.31,18.9 M16.5,19A2.5,2.5,0,0,1,14,16.5A2.5,2.5,0,0,1,16.5,14A2.5,2.5,0,0,1,19,16.5A2.5,2.5,0,0,1,16.5,19z" fill="#FF6161" />
</svg>