<svg xmlns="http://www.w3.org/2000/svg" viewBox="0 0 24 24">
  <path d="M18.75,22.16L16,19.16 17.16,18 18.75,19.59 22.34,16 23.5,17.41 18.75,22.16 M11,15L13,15 13,17 11,17 11,15 M11,7L13,7 13,13 11,13 11,7 M12,2C17.5,2,22,6.5,22,12L21.92,13.31C21.31,13.11,20.67,13,19.94,13L20,12C20,7.58 16.42,4 12,4 7.58,4 4,7.58 4,12 4,16.42 7.58,20 12,20 12.71,20 13.39,19.91 14.05,19.74 14.13,20.42 14.33,21.06 14.62,21.65 13.78,21.88 12.9,22 12,22 6.47,22 2,17.5 2,12 2,6.5 6.47,2 12,2z" fill="#FF6161" />
</svg>