<svg width="100%" height="100%" viewBox="0 0 24 24" version="1.1" xmlns="http://www.w3.org/2000/svg" xmlns:xlink="http://www.w3.org/1999/xlink" xml:space="preserve" xmlns:serif="http://www.serif.com/" style="fill-rule:evenodd;clip-rule:evenodd;stroke-linejoin:round;stroke-miterlimit:2;">
    <g transform="matrix(1.139095,0,0,1.139095,-3.199191,-3.199191)">
        <path d="M19,12L19,13.5C21.209,13.5 23,15.291 23,17.5C23,18.32 22.75,19.08 22.33,19.71L21.24,18.62C21.41,18.28 21.5,17.9 21.5,17.5C21.5,16.119 20.381,15 19,15L19,16.5L16.72,14.22C16.78,14.17 16.85,14.13 19,12M19,23L19,21.5C16.791,21.5 15,19.709 15,17.5C15,16.68 15.25,15.92 15.67,15.29L16.76,16.38C16.59,16.72 16.5,17.1 16.5,17.5C16.5,18.881 17.619,20 19,20L19,18.5L21.28,20.78C21.22,20.83 21.15,20.87 19,23Z" style="fill:rgb(202,69,72);fill-rule:nonzero;"/>
    </g>
    <path d="M10,4L12,6L20,6C21.104,6 22,6.895 22,8L22,11.5C21.38,11.24 20.7,11.07 20,11L20,8L4,8L4,18L13,18C13.07,18.7 13.24,19.38 13.5,20L4,20C2.89,20 2,19.1 2,18L2,6C2,4.89 2.89,4 4,4L10,4" style="fill:rgb(82,96,105);fill-rule:nonzero;"/>
</svg>