<svg xmlns="http://www.w3.org/2000/svg" viewBox="0 0 24 24">
	<path d="M 19 12 L 19 13.5 C 21.209 13.5 23 15.291 23 17.5 C 23 18.32 22.75 19.08 22.33 19.71 L 21.24 18.62 C 21.41 18.28 21.5 17.9 21.5 17.5 C 21.5 16.119 20.381 15 19 15 L 19 16.5 L 16.75 14.25 L 16.72 14.22 C 16.78 14.17 16.85 14.13 19 12 M 19 23 L 19 21.5 C 16.791 21.5 15 19.709 15 17.5 C 15 16.68 15.25 15.92 15.67 15.29 L 16.76 16.38 C 16.59 16.72 16.5 17.1 16.5 17.5 C 16.5 18.881 17.619 20 19 20 L 19 18.5 L 21.25 20.75 L 21.28 20.78 C 21.22 20.83 21.15 20.87 19 23 Z" style="fill: rgb(230, 49, 49);"></path>
	<path d="M 10 4 L 12 6 L 20 6 C 21.104 6 22 6.895 22 8 L 22 11.5 C 21.38 11.24 20.7 11.07 20 11 L 20 8 L 4 8 L 4 18 L 13 18 C 13.07 18.7 13.24 19.38 13.5 20 L 4 20 C 2.89 20 2 19.1 2 18 L 2 6 C 2 4.89 2.89 4 4 4 L 10 4" style="stroke-width: 1; fill: rgb(119, 119, 119); pointer-events: none;"></path>
</svg>