<?xml version="1.0" encoding="UTF-8" standalone="no"?>
<!DOCTYPE svg PUBLIC "-//W3C//DTD SVG 1.1//EN" "http://www.w3.org/Graphics/SVG/1.1/DTD/svg11.dtd">
<svg width="100%" height="100%" viewBox="0 0 24 24" version="1.1" xmlns="http://www.w3.org/2000/svg" xmlns:xlink="http://www.w3.org/1999/xlink" xml:space="preserve" xmlns:serif="http://www.serif.com/" style="fill-rule:evenodd;clip-rule:evenodd;stroke-linejoin:round;stroke-miterlimit:2;">
    <g transform="matrix(1,0,0,1,-5.241894,14.06352)">
        <g transform="matrix(1.37529,0,0,1.113334,-2.455342,-9.915539)">
            <rect x="15.777" y="5.258" width="5.8" height="2.7" style="fill:rgb(240,105,0);"/>
        </g>
        <g transform="matrix(1,0,0,1,4.004568,-9.26106)">
            <rect x="15.777" y="5.258" width="5.8" height="2.7" style="fill:none;"/>
        </g>
        <g transform="matrix(1,0,0,1,4.004568,-9.26106)">
            <path d="M4.897,2.418C5.404,2.271 6.057,2.134 6.857,2.008C7.657,1.881 8.497,1.818 9.377,1.818C10.271,1.818 11.014,1.934 11.607,2.168C12.201,2.401 12.671,2.731 13.017,3.158C13.364,3.584 13.611,4.091 13.757,4.678C13.904,5.264 13.977,5.918 13.977,6.638L13.977,12.578L10.997,12.578L10.997,6.998C10.997,6.038 10.871,5.358 10.617,4.958C10.364,4.558 9.891,4.358 9.197,4.358C8.984,4.358 8.757,4.368 8.517,4.388C8.277,4.408 8.064,4.431 7.877,4.458L7.877,12.578L4.897,12.578L4.897,2.418Z" style="fill:rgb(119,119,119);"/>
        </g>
        <g transform="matrix(1,0,0,1,4.004568,-9.26106)">
            <path d="M4.897,2.418C5.404,2.271 6.057,2.134 6.857,2.008C7.657,1.881 8.497,1.818 9.377,1.818C10.271,1.818 11.014,1.934 11.607,2.168C12.201,2.401 12.671,2.731 13.017,3.158C13.364,3.584 13.611,4.091 13.757,4.678C13.904,5.264 13.977,5.918 13.977,6.638L13.977,12.578L10.997,12.578L10.997,6.998C10.997,6.038 10.871,5.358 10.617,4.958C10.364,4.558 9.891,4.358 9.197,4.358C8.984,4.358 8.757,4.368 8.517,4.388C8.277,4.408 8.064,4.431 7.877,4.458L7.877,12.578L4.897,12.578L4.897,2.418Z" style="fill:none;"/>
        </g>
    </g>
</svg>
