<svg width="100%" height="100%" viewBox="0 0 24 24" version="1.1" xmlns="http://www.w3.org/2000/svg" xmlns:xlink="http://www.w3.org/1999/xlink" xml:space="preserve" xmlns:serif="http://www.serif.com/" style="fill-rule:evenodd;clip-rule:evenodd;stroke-linejoin:round;stroke-miterlimit:2;">
    <path d="M22,12L18,8L18,11L10,11L10,13L18,13L18,16L22,12Z" style="fill:rgb(239,72,35);"/>
    <path d="M20,18C18.113,20.516 15.145,22 12,22C6.514,22 2,17.486 2,12C2,6.514 6.514,2 12,2C15.145,2 18.113,3.484 20,6L17.27,6C15.809,4.712 13.927,4 11.978,4C7.59,4 3.978,7.611 3.978,12C3.978,16.389 7.59,20 11.978,20C13.927,20 15.809,19.288 17.27,18L20,18Z" style="fill:rgb(82,96,105);"/>
</svg>