<svg width="100%" height="100%" viewBox="0 0 24 24" version="1.1" xmlns="http://www.w3.org/2000/svg" xmlns:xlink="http://www.w3.org/1999/xlink" xml:space="preserve" xmlns:serif="http://www.serif.com/" style="fill-rule:evenodd;clip-rule:evenodd;stroke-linejoin:round;stroke-miterlimit:2;">
    <g transform="matrix(0.098901,0,0,0.098901,0.132234,0.132142)">
        <path d="M58.34,101.66L26.34,69.66C24.838,68.16 23.994,66.122 23.994,64C23.994,61.878 24.838,59.84 26.34,58.34L58.34,26.34C59.841,24.839 61.878,23.996 64,23.996C68.391,23.996 72.004,27.609 72.004,32C72.004,34.122 71.161,36.159 69.66,37.66L43.31,64L69.66,90.34C71.161,91.841 72.004,93.878 72.004,96C72.004,100.391 68.391,104.004 64,104.004C61.878,104.004 59.841,103.161 58.34,101.66Z" style="fill:rgb(0,103,223);"/>
    </g>
    <g transform="matrix(0.098901,0,0,0.098901,0.132234,0.132142)">
        <path d="M98.34,101.66C99.84,103.162 101.878,104.006 104,104.006C106.122,104.006 108.16,103.162 109.66,101.66L141.66,69.66C143.162,68.16 144.006,66.122 144.006,64C144.006,61.878 143.162,59.84 141.66,58.34L109.66,26.34C108.159,24.839 106.122,23.996 104,23.996C99.609,23.996 95.996,27.609 95.996,32C95.996,34.122 96.839,36.159 98.34,37.66L124.69,64L98.34,90.34C96.838,91.84 95.994,93.878 95.994,96C95.994,98.122 96.838,100.16 98.34,101.66Z" style="fill:rgb(0,103,223);"/>
    </g>
    <g transform="matrix(0.098901,0,0,0.098901,0.132234,0.132142)">
        <path d="M200,40L176,40C171.611,40 168,43.611 168,48C168,52.389 171.611,56 176,56L200,56L200,200L56,200L56,136C56,131.611 52.389,128 48,128C43.611,128 40,131.611 40,136L40,200C40,208.777 47.223,216 56,216L200,216C208.777,216 216,208.777 216,200L216,56C216,47.223 208.777,40 200,40Z" style="fill:rgb(82,96,105);"/>
    </g>
</svg>