<svg width="100%" height="100%" viewBox="0 0 24 24" version="1.1" xmlns="http://www.w3.org/2000/svg" xmlns:xlink="http://www.w3.org/1999/xlink" xml:space="preserve" xmlns:serif="http://www.serif.com/" style="fill-rule:evenodd;clip-rule:evenodd;stroke-linejoin:round;stroke-miterlimit:2;">
    <path d="M3,5L15,5C16.097,5 17,5.903 17,7L17,17C17,18.097 16.097,19 15,19L3,19C1.903,19 1,18.097 1,17L1,7C1,5.903 1.903,5 3,5ZM10,9L10,12L15,12L15,9L10,9ZM3,9L3,12L8,12L8,9L3,9ZM3,14L3,17L8,17L8,14L3,14ZM10,14L10,17L15,17L15,14L10,14Z" style="fill:rgb(82,96,105);"/>
    <path d="M23,14L23,7L19,7L19,9L21,9L21,12L19,12L19,14L23,14Z" style="fill:rgb(86,169,114);"/>
</svg>