<svg width="100%" height="100%" viewBox="0 0 24 24" version="1.1" xmlns="http://www.w3.org/2000/svg" xmlns:xlink="http://www.w3.org/1999/xlink" xml:space="preserve" xmlns:serif="http://www.serif.com/" style="fill-rule:evenodd;clip-rule:evenodd;stroke-linejoin:round;stroke-miterlimit:2;">
    <path d="M17,12L17,9L15.5,9L6.5,18L2,18L2,15L5.26,15L14.26,6L17,6L17,3L22.25,7.5L17,12Z" style="fill:rgb(0,103,223);"/>
    <path d="M17,12L22.25,16.5L17,21L17,18L14.26,18L11.44,15.18L13.56,13.06L15.5,15L17,15L17,12Z" style="fill:rgb(119,119,119);"/>
    <path d="M2,6L6.5,6L9.32,8.82L7.2,10.94L5.26,9L2,9L2,6Z" style="fill:rgb(119,119,119);"/>
</svg>