<svg width="100%" height="100%" viewBox="0 0 512 512" version="1.1" xmlns="http://www.w3.org/2000/svg" xmlns:xlink="http://www.w3.org/1999/xlink" xml:space="preserve" xmlns:serif="http://www.serif.com/" style="fill-rule:evenodd;clip-rule:evenodd;stroke-linejoin:round;stroke-miterlimit:2;">
    <g transform="matrix(0.5,0,0,0.5,0,0)">
        <path d="M819.8,512L922.2,389.1C925,385.7 924.6,380.7 921.2,377.8C919.8,376.6 918,375.9 916.1,375.9L861.4,375.9C859,375.9 856.8,377 855.3,378.8L782,466.7L708.9,378.9C707.4,377.1 705.1,376 702.8,376L648,376C646.1,376 644.3,376.7 642.9,377.9C639.5,380.7 639,385.8 641.9,389.2L744.2,512L641.8,634.9C639,638.3 639.4,643.3 642.8,646.2C644.2,647.4 646,648.1 647.9,648.1L702.6,648.1C705,648.1 707.2,647 708.7,645.2L781.8,557.4L854.9,645.2C856.4,647 858.7,648.1 861,648.1L916,648.1C917.9,648.1 919.7,647.4 921.1,646.2C924.5,643.4 925,638.3 922.1,634.9L819.8,512Z" style="fill:rgb(202,69,72);"/>
    </g>
    <g transform="matrix(0.5,0,0,0.5,0,0)">
        <path d="M536,464L120,464C115.6,464 112,467.6 112,472L112,552C112,556.4 115.6,560 120,560L536,560C540.4,560 544,556.4 544,552L544,472C544,467.6 540.4,464 536,464Z" style="fill:rgb(202,69,72);"/>
    </g>
    <g transform="matrix(0.5,0,0,0.5,0,0)">
        <path d="M452,668L392,668C388.7,668 386,670.7 386,674L386,840L136,840C132.7,840 130,842.7 130,846L130,906C130,909.3 132.7,912 136,912L428,912C444.6,912 458,898.6 458,882L458,674C458,670.7 455.3,668 452,668Z" style="fill:rgb(82,96,105);"/>
    </g>
    <g transform="matrix(0.5,0,0,0.5,0,0)">
        <path d="M136,184L386,184L386,350C386,353.3 388.7,356 392,356L452,356C455.3,356 458,353.3 458,350L458,142C458,125.4 444.6,112 428,112L136,112C132.7,112 130,114.7 130,118L130,178C130,181.3 132.7,184 136,184Z" style="fill:rgb(82,96,105);"/>
    </g>
</svg>