<svg width="100%" height="100%" viewBox="0 0 24 24" version="1.1" xmlns="http://www.w3.org/2000/svg" xmlns:xlink="http://www.w3.org/1999/xlink" xml:space="preserve" xmlns:serif="http://www.serif.com/" style="fill-rule:evenodd;clip-rule:evenodd;stroke-linejoin:round;stroke-miterlimit:2;">
    <path d="M4,2L11,2C12.097,2 13,2.903 13,4L13,20C13,21.097 12.097,22 11,22L4,22C2.903,22 2,21.097 2,20L2,4C2,2.903 2.903,2 4,2ZM4,4L4,8L11,8L11,4L4,4ZM4,10L4,14L11,14L11,10L4,10ZM4,16L4,20L11,20L11,16L4,16Z" style="fill:rgb(82,96,105);"/>
    <path d="M17.59,12L15,9.41L16.41,8L19,10.59L21.59,8L23,9.41L20.41,12L23,14.59L21.59,16L19,13.41L16.41,16L15,14.59L17.59,12Z" style="fill:rgb(202,69,72);"/>
</svg>