<svg width="100%" height="100%" viewBox="0 0 24 24" version="1.1" xmlns="http://www.w3.org/2000/svg" xmlns:xlink="http://www.w3.org/1999/xlink" xml:space="preserve" xmlns:serif="http://www.serif.com/" style="fill-rule:evenodd;clip-rule:evenodd;stroke-linejoin:round;stroke-miterlimit:2;">
    <path d="M13,2.03L13,4.05C17.39,4.59 20.5,8.58 19.96,12.97C19.5,16.61 16.64,19.5 13,19.93L13,21.93C18.5,21.38 22.5,16.5 21.95,11C21.5,6.25 17.73,2.5 13,2.03Z" style="fill:rgb(82,96,105);"/>
    <path d="M11,2.06C9.05,2.25 7.19,3 5.67,4.26L7.1,5.74C8.22,4.84 9.57,4.26 11,4.06L11,2.06Z" style="fill:rgb(82,96,105);"/>
    <path d="M4.26,5.67C3,7.19 2.25,9.04 2.05,11L4.05,11C4.24,9.58 4.8,8.23 5.69,7.1L4.26,5.67Z" style="fill:rgb(82,96,105);"/>
    <path d="M2.06,13C2.26,14.96 3.03,16.81 4.27,18.33L5.69,16.9C4.81,15.77 4.24,14.42 4.06,13L2.06,13Z" style="fill:rgb(82,96,105);"/>
    <path d="M7.1,18.37L5.67,19.74C7.18,21 9.04,21.79 11,22L11,20C9.58,19.82 8.23,19.25 7.1,18.37Z" style="fill:rgb(82,96,105);"/>
    <path d="M14.59,8L12,10.59L9.41,8L8,9.41L10.59,12L8,14.59L9.41,16L12,13.41L14.59,16L16,14.59L13.41,12L16,9.41L14.59,8Z" style="fill:rgb(202,69,72);"/>
</svg>