<?xml version="1.0" encoding="UTF-8" standalone="no"?>
<!DOCTYPE svg PUBLIC "-//W3C//DTD SVG 1.1//EN" "http://www.w3.org/Graphics/SVG/1.1/DTD/svg11.dtd">
<svg width="100%" height="100%" viewBox="0 0 24 24" version="1.1" xmlns="http://www.w3.org/2000/svg" xmlns:xlink="http://www.w3.org/1999/xlink" xml:space="preserve" xmlns:serif="http://www.serif.com/" style="fill-rule:evenodd;clip-rule:evenodd;stroke-linejoin:round;stroke-miterlimit:2;">
    <rect x="11" y="8" width="2" height="6" style="fill:rgb(0,103,223);"/>
    <rect x="9" y="1" width="6" height="2" style="fill:rgb(0,103,223);"/>
    <path d="M12,20C8.13,20 5,16.87 5,13C5,9.13 8.13,6 12,6C15.54,6 18.45,8.62 18.93,12.03C19.65,12.08 20.34,12.23 21,12.5C20.87,10.57 20.16,8.81 19.03,7.39L20.45,5.97C20,5.46 19.55,5 19.04,4.56L17.62,6C16.07,4.74 14.12,4 12,4C7.03,4 3,8.03 3,13C3,17.97 7.03,22 12,22C12.34,22 12.67,22 13,21.94C12.63,21.35 12.35,20.69 12.18,20L12,20Z" style="fill:rgb(82,96,105);"/>
    <path d="M22,18.5L22,14.5L20.83,15.67C20.11,14.95 19.11,14.5 18,14.5C15.79,14.5 14,16.29 14,18.5C14,20.71 15.79,22.5 18,22.5C19.68,22.5 21.12,21.47 21.71,20L20,20C19.54,20.61 18.82,21 18,21C16.62,21 15.5,19.88 15.5,18.5C15.5,17.12 16.62,16 18,16C18.69,16 19.32,16.28 19.77,16.73L18,18.5L22,18.5Z" style="fill:rgb(239,72,35);"/>
</svg>
