<svg width="100%" height="100%" viewBox="0 0 24 24" version="1.1" xmlns="http://www.w3.org/2000/svg" xmlns:xlink="http://www.w3.org/1999/xlink" xml:space="preserve" xmlns:serif="http://www.serif.com/" style="fill-rule:evenodd;clip-rule:evenodd;stroke-linejoin:round;stroke-miterlimit:2;">
    <path d="M22,15L20,15L20,18C20,19.11 19.11,20 18,20L15,20L15,22L12,19L15,16L15,18L18,18L18,15L16,15L19,12L22,15Z" style="fill:rgb(0,103,223);"/>
    <path d="M22,4L22,8C22,9.1 21.1,10 20,10L10,10L10,20C10,21.1 9.1,22 8,22L4,22C2.9,22 2,21.1 2,20L2,4C2,2.9 2.9,2 4,2L20,2C21.1,2 22,2.9 22,4ZM4,10L4,14L8,14L8,10L4,10ZM14,8L14,4L10,4L10,8L14,8ZM8,20L8,16L4,16L4,20L8,20ZM4,8L8,8L8,4L4,4L4,8ZM20,4L16,4L16,8L20,8L20,4Z" style="fill:rgb(82,96,105);"/>
</svg>