<svg width="100%" height="100%" viewBox="0 0 16 16" version="1.1" xmlns="http://www.w3.org/2000/svg" xmlns:xlink="http://www.w3.org/1999/xlink" xml:space="preserve" xmlns:serif="http://www.serif.com/" style="fill-rule:evenodd;clip-rule:evenodd;stroke-linejoin:round;stroke-miterlimit:2;">
    <g transform="matrix(1,0,0,1,-0.50049,-1)">
        <path d="M10.5,2.5C10.5,2.224 10.724,2 11,2C12.105,2 13,2.895 13,4L13,6.005C13,6.535 13.008,6.799 13.089,7.002C13.152,7.158 13.284,7.333 13.723,7.553C13.892,7.638 13.999,7.811 13.999,8C13.999,8.189 13.892,8.363 13.723,8.447C13.284,8.667 13.151,8.841 13.089,8.998C13.072,9.041 13.058,9.088 13.046,9.139C12.729,9.053 12.397,9.005 12.055,9.001C12.079,8.872 12.112,8.747 12.16,8.627C12.257,8.384 12.403,8.18 12.598,8C12.402,7.821 12.257,7.616 12.16,7.374C11.998,6.971 11.999,6.51 11.999,6.063L11.999,4C11.999,3.448 11.551,3 10.999,3C10.723,3 10.5,2.776 10.5,2.5Z" style="fill:rgb(82,96,105);"/>
    </g>
    <g transform="matrix(1,0,0,1,-0.50049,-1)">
        <path d="M3.838,7.373C4,6.971 4,6.51 4,6.063L4,4C4,3.448 4.448,3 5,3C5.276,3 5.5,2.776 5.5,2.5C5.5,2.224 5.276,2 5,2C3.895,2 3,2.895 3,4L3,6.005C3,6.535 2.992,6.799 2.911,7.002C2.848,7.158 2.716,7.333 2.277,7.553C2.108,7.638 2.001,7.811 2.001,8C2.001,8.189 2.108,8.363 2.277,8.447C2.716,8.667 2.849,8.841 2.911,8.998C2.993,9.202 3,9.467 3,10L3,12C3,13.105 3.895,14 5,14C5.276,14 5.5,13.776 5.5,13.5C5.5,13.224 5.276,13 5,13C4.448,13 4,12.552 4,12L4,9.941C4,9.492 4,9.03 3.839,8.626C3.742,8.383 3.596,8.179 3.4,7.999C3.596,7.82 3.741,7.615 3.838,7.373Z" style="fill:rgb(82,96,105);"/>
    </g>
    <g transform="matrix(1,0,0,1,-0.50049,-1)">
        <path d="M12,10C10.343,10 9,11.343 9,13C9,14.657 10.343,16 12,16C13.657,16 15,14.657 15,13C15,11.343 13.657,10 12,10Z" style="fill:rgb(0,103,223);"/>
    </g>
</svg>