<svg xmlns="http://www.w3.org/2000/svg" viewBox="0 0 24 24" xmlns:bx="https://boxy-svg.com">
	<path d="M 13.1 19.9 C 12.7 20 12.4 20 12 20 C 7.6 20 4 16.4 4 12 C 4 7.6 7.6 4 12 4 C 16.4 4 20 7.6 20 12 C 20 12.4 20 12.7 19.9 13.1 C 20.6 13.2 21.2 13.4 21.8 13.7 C 21.9 13.1 22 12.6 22 12 C 22 6.5 17.5 2 12 2 C 6.5 2 2 6.5 2 12 C 2 17.5 6.5 22 12 22 C 12.6 22 13.2 21.9 13.7 21.8 C 13.4 21.3 13.2 20.6 13.1 19.9 M 15.6 14.1 L 12.5 12.3 L 12.5 7 L 11 7 L 11 13 L 14.5 15.1 C 14.8 14.7 15.2 14.4 15.6 14.1 Z" style="fill: rgb(119, 119, 119);"></path>
	<path d="M 23.5 17 L 18.5 22 L 15 18.5 L 16.5 17 L 18.5 19 L 22 15.5" style="stroke-width: 1; fill: rgb(230, 49, 49);"></path>
</svg>